<svg xmlns="http://www.w3.org/2000/svg" xmlns:xlink="http://www.w3.org/1999/xlink" x="0px" y="0px" width="48px" height="48px" viewBox="0 0 48 48"><g transform="translate(0, 0)"><path fill="#335262" d="M16,24c0-4.41828,3.58172-8,8-8h9.17151l-6.58557,6.58594l2.82812,2.82812l10-10
	c0.78096-0.78096,0.78096-2.04716,0-2.82812l-10-10l-2.82812,2.82812L33.17151,12H24c-6.62742,0-12,5.37258-12,12v9
	c0,0.55228,0.44771,1,1,1h2c0.55229,0,1-0.44772,1-1V24z"></path>
<path fill="#9EDB9E" d="M40,42H7c-0.55228,0-1,0.44772-1,1v2c0,0.55228,0.44772,1,1,1h35c1.10457,0,2-0.89543,2-2v-9
	c0-0.55228-0.44772-1-1-1h-2c-0.55228,0-1,0.44772-1,1V42z"></path></g></svg>