<svg xmlns="http://www.w3.org/2000/svg" xmlns:xlink="http://www.w3.org/1999/xlink" x="0px" y="0px" width="48px" height="48px" viewBox="0 0 48 48"><g transform="translate(0, 0)"><rect x="2" y="21" width="10" height="24" rx="2" ry="2" fill="#335262"></rect>
<path d="M43.935,26.5A4,4,0,0,0,42,19H24V10c0-7.909-4.8-8-5-8a1,1,0,0,0-.961.725l-6,21A.983.983,0,0,0,12,24V41a1,1,0,0,0,.293.707C12.427,41.842,15.67,45,23,45H40a3,3,0,0,0,1.922-5.3,3.5,3.5,0,0,0,.929-5.789A4,4,0,0,0,43.935,26.5Z" fill="#ffd764"></path></g></svg>